<?xml version="1.0" standalone="no"?><!DOCTYPE svg PUBLIC "-//W3C//DTD SVG 1.1//EN" "http://www.w3.org/Graphics/SVG/1.1/DTD/svg11.dtd"><svg t="1773130840086" class="icon" viewBox="0 0 1024 1024" version="1.1" xmlns="http://www.w3.org/2000/svg" p-id="4805" xmlns:xlink="http://www.w3.org/1999/xlink" width="200" height="200"><path d="M976.401 501.651l-1.707-175.819h48.416l-18.031-29.361h-49.844c-0.688-38.921-47.796-30.726-47.796-30.726v38.579l-139.291 0.341v-64.866h54.622l-20.483-35.506h-55.989c-6.146-47.114-56.673-34.823-56.673-34.823v53.942H333.483V169.47s-50.526-12.292-56.672 34.823h-55.99l-20.483 35.506h54.623v64.866l-139.291-0.341v-38.579s-47.109-8.195-47.796 30.726H18.03L0 325.833h48.416l-1.707 175.819h12.973l-19.118 353.35h58.038v-353.35l159.434 0.343-16.729 353.007h64.183l0.683-392.609h410.766l0.683 392.609h64.182l-16.729-353.007 159.435-0.343v353.35h58.037l-19.118-353.35h12.972z" p-id="4806"></path></svg>